<svg height="32" viewBox="0 0 32 32" width="32" xmlns="http://www.w3.org/2000/svg"><title/><path d="M28 20.5c0 4.694-3.806 8.5-8.5 8.5-3.113 0-6.398-1.453-8.66-5.572-3.263-5.945-7.436-9.845-5.45-11.832 1.423-1.422 3.655-.058 5.61 1.77V5.51C11 4.115 12.12 3 13.5 3 14.89 3 16 4.123 16 5.508v4.994c.418-.315.937-.502 1.5-.502 1.082 0 1.994.678 2.346 1.628.44-.39 1.02-.628 1.654-.628.565 0 1.083.185 1.5.496V8.493C23 7.113 24.12 6 25.5 6 26.89 6 28 7.116 28 8.493V20.5zM19.5 28c-3.76 0-5.99-2.05-7.753-5.017C7.835 16.4 5.034 13.39 6.12 12.296c1.112-1.117 3.822 1.302 5.88 3.502V5.508C12 4.667 12.672 4 13.5 4c.834 0 1.5.675 1.5 1.51V15h1v-2.503c0-.825.672-1.497 1.5-1.497.834 0 1.5.67 1.5 1.497V14h1v-.503c0-.825.672-1.497 1.5-1.497.834 0 1.5.67 1.5 1.497V15h1V8.49c0-.827.672-1.49 1.5-1.49.834 0 1.5.668 1.5 1.49V20.5c0 4.142-3.358 7.5-7.5 7.5z" fill="none" fill-rule="evenodd" stroke="#fff"/></svg>