<svg xmlns="http://www.w3.org/2000/svg" viewBox="0 0 901 721.2">
	<path stroke="#fff" stroke-width="1" fill="none" d="M870,620.1H31c-16.5,0-30-13.5-30-30V31C1,14.5,14.5,1,31,1H870c16.5,0,30,13.5,30,30v559.1 C900,606.6,886.5,620.1,870,620.1z"></path>
	<rect x="38.5" y="40.2" stroke="#fff" stroke-width="1" fill="none" width="824" height="462"></rect>
	<line stroke="#fff" stroke-width="1" fill="none" x1="900" y1="538.9" x2="1" y2="538.9"></line>
	<path stroke="#fff" stroke-width="1" fill="none" d="M553.3,620.1c0.7,11.1,2,26.3,3.7,40.7c4.5,39.1,8,42.5,8.7,42.8c3.2,1.4,13,2.9,21.7,4.2 c15.5,2.4,17.6,2.9,17.6,4.4v2.2c0,0.6,0,1-2.9,1.4c0,0.7,0,1.8,0,2.6c0,1.7-49.5,1.9-94.3,1.9c-22.7,0-44.1-0.1-57.4-0.1 c-13.3,0-34.7,0.1-57.4,0.1c-44.8,0-94.3-0.3-94.3-1.9c0-0.7,0-1.8,0-2.6c-2.9-0.4-2.9-0.8-2.9-1.4v-2.2c0-1.5,2.1-2,17.6-4.4 c8.7-1.3,18.5-2.8,21.7-4.2c0.7-0.3,4.2-3.7,8.7-42.8c1.7-14.4,3-29.6,3.7-40.7"></path>
	<path stroke="#fff" stroke-width="1" fill="none" d="M600.8,715.9c-4,0.4-12,0.7-27.6,0.9c-15.5,0.2-36.7,0.4-65,0.4c-14,0-27.2,0-38.8-0.1c-7.3,0-13.8,0-19,0 c-5.2,0-11.7,0-19,0c-11.7,0-24.9,0.1-38.8,0.1c-28.2,0-49.5-0.1-65-0.4c-15.6-0.2-23.5-0.5-27.6-0.9"></path>
	<circle stroke="#fff" stroke-width="1" fill="none" cx="450.5" cy="20" r="4.1"></circle>
</svg>